 <svg version="1.0" xmlns="http://www.w3.org/2000/svg" width="700.000000pt" height="700.000000pt" viewBox="0 0 700.000000 700.000000" preserveAspectRatio="xMidYMid meet">
<metadata>
Created by potrace 1.12, written by Peter Selinger 2001-2015
</metadata>
<g transform="translate(0.000000,700.000000) scale(0.100000,-0.100000)" fill="#000000" stroke="none">
<path d="M3925 5851 c-38 -20 -142 -71 -230 -113 -88 -42 -241 -116 -340 -164
-99 -47 -238 -115 -310 -149 -71 -34 -202 -97 -290 -140 -88 -43 -200 -97
-250 -120 -49 -24 -162 -78 -250 -120 -88 -43 -214 -103 -280 -135 -158 -76
-375 -181 -555 -268 -80 -38 -197 -94 -260 -125 -63 -30 -196 -94 -295 -142
-99 -48 -220 -106 -270 -130 -49 -23 -184 -88 -299 -144 -114 -55 -210 -101
-213 -101 -10 0 -63 -42 -63 -49 0 -5 26 -13 58 -19 116 -23 220 -41 342 -61
69 -12 161 -27 205 -36 44 -8 118 -21 165 -29 244 -42 282 -50 290 -65 4 -9
18 -61 29 -116 31 -142 68 -311 98 -445 14 -63 31 -142 38 -175 7 -33 24 -112
38 -175 14 -63 42 -189 62 -280 20 -91 43 -196 51 -235 9 -38 20 -88 25 -110
33 -146 50 -220 65 -290 9 -44 20 -87 25 -97 6 -10 4 -18 -4 -21 -107 -43
-297 -120 -312 -127 -73 -34 -197 -80 -216 -80 -17 0 -20 -5 -16 -22 4 -23 37
-142 56 -205 11 -37 10 -38 -64 -68 -29 -12 -50 -27 -50 -35 0 -11 13 -16 50
-17 28 -2 151 -9 275 -18 124 -8 335 -21 470 -30 135 -9 313 -20 395 -26 83
-5 224 -14 315 -19 91 -5 230 -14 310 -20 80 -6 219 -15 310 -21 91 -5 223
-14 294 -19 l130 -9 90 36 c50 19 129 50 176 68 47 18 126 49 175 68 99 39
184 71 320 124 50 19 99 38 110 44 11 5 50 20 87 34 70 26 170 64 368 142 112
44 175 68 303 117 34 13 116 45 182 71 140 55 205 80 335 129 52 20 104 41
115 46 19 9 132 53 365 141 58 21 114 44 125 49 11 5 74 30 140 55 151 58 291
112 425 165 58 23 123 48 145 55 28 8 40 18 40 31 0 15 -13 20 -77 29 -42 6
-79 13 -81 15 -3 3 -18 52 -33 109 -33 119 -14 105 -184 136 -52 9 -138 25
-190 35 -52 10 -126 24 -163 31 -47 9 -66 17 -63 25 3 7 -20 86 -51 176 -184
537 -290 849 -328 963 -24 72 -82 242 -129 380 -47 137 -86 255 -86 260 0 12
54 38 260 128 69 30 148 64 175 76 28 12 57 26 66 30 9 5 58 27 110 49 230 98
267 120 239 137 -10 6 -327 118 -425 150 -22 8 -105 37 -185 65 -80 28 -179
62 -220 76 -41 14 -84 29 -95 34 -23 10 -231 83 -315 110 -30 10 -113 39 -185
64 -71 26 -168 60 -215 76 -47 15 -150 52 -230 80 -184 65 -321 113 -435 151
-49 17 -94 35 -99 40 -12 11 -8 13 -91 -30z m231 -57 c87 -30 197 -69 244 -85
47 -17 103 -37 125 -44 22 -7 105 -36 185 -65 80 -28 183 -64 230 -80 47 -16
150 -52 230 -80 80 -29 163 -58 185 -65 22 -7 119 -41 215 -75 96 -34 200 -70
230 -80 30 -10 114 -39 185 -64 72 -26 185 -66 253 -89 67 -23 121 -46 119
-50 -1 -4 -90 -46 -197 -93 -107 -47 -222 -98 -255 -113 -256 -118 -347 -154
-356 -140 -5 8 -9 19 -9 25 0 6 122 64 270 129 149 65 270 123 270 130 0 7 -8
16 -17 20 -19 7 -982 334 -1373 465 -558 188 -712 240 -728 249 -13 7 -37 0
-92 -27 -41 -21 -138 -67 -215 -104 -77 -37 -238 -114 -359 -173 -120 -58
-220 -105 -221 -105 -1 0 -101 -48 -221 -106 -121 -58 -246 -119 -279 -134
-33 -15 -132 -63 -220 -105 -88 -42 -200 -96 -250 -120 -49 -23 -148 -71 -220
-105 -71 -34 -184 -88 -250 -120 -66 -32 -187 -90 -270 -130 -82 -40 -195 -94
-250 -120 -450 -214 -658 -316 -680 -333 -17 -13 -17 -17 -5 -21 16 -6 187
-38 453 -85 87 -16 162 -32 167 -37 5 -5 10 -22 12 -39 2 -25 0 -30 -17 -28
-42 5 -276 45 -490 83 -124 22 -234 41 -367 64 -43 7 -81 15 -84 19 -4 4 83
50 192 103 306 148 458 221 589 284 66 32 192 92 280 135 206 100 406 196 520
250 50 23 160 76 245 118 283 136 454 219 555 267 55 26 181 87 280 135 99 48
225 109 280 135 55 26 188 90 295 142 107 52 255 123 329 159 118 56 325 156
327 158 0 1 72 -24 160 -55z m-54 -189 c157 -54 261 -89 1061 -358 203 -69
373 -129 378 -134 10 -10 59 -226 53 -232 -4 -4 -160 40 -304 86 -94 29 -145
45 -240 73 -41 12 -84 25 -95 30 -11 5 -112 36 -225 70 -113 33 -257 77 -320
96 -63 19 -128 39 -145 44 -169 49 -362 113 -375 125 -15 14 -40 134 -40 192
0 19 32 42 87 62 2 1 76 -24 165 -54z m-274 -98 c7 -46 12 -89 12 -96 0 -11
-45 -34 -215 -111 -27 -12 -97 -44 -153 -71 -57 -27 -105 -49 -107 -49 -2 0
-43 -18 -92 -41 -159 -74 -207 -96 -323 -149 -63 -29 -144 -66 -180 -82 -36
-17 -90 -42 -120 -56 -30 -13 -97 -44 -148 -68 -52 -24 -95 -44 -97 -44 -2 0
-45 -20 -97 -44 -51 -24 -115 -54 -143 -66 -189 -86 -371 -170 -513 -236 -52
-24 -95 -44 -97 -44 -2 0 -41 -17 -87 -39 -102 -48 -193 -90 -278 -129 -36
-16 -101 -46 -145 -67 -104 -48 -155 -68 -160 -64 -2 2 -5 34 -7 72 l-3 67
240 116 c132 63 263 126 290 139 28 12 127 60 220 105 94 45 206 99 250 120
44 21 148 70 230 110 83 40 195 94 250 120 55 26 163 78 240 115 77 37 178 85
225 107 47 23 166 80 265 128 99 48 241 116 315 151 74 35 191 92 260 126 69
34 132 62 140 62 12 1 19 -18 28 -82z m152 -173 c63 -20 135 -42 160 -49 25
-7 74 -22 110 -33 36 -11 171 -52 300 -91 129 -40 246 -76 260 -80 14 -5 59
-19 100 -31 41 -12 93 -28 115 -35 22 -7 63 -20 90 -28 28 -8 93 -28 145 -45
52 -16 121 -37 153 -46 31 -9 57 -20 57 -24 0 -4 -13 -13 -29 -19 -24 -9 -29
-16 -28 -41 2 -30 -2 -33 -115 -88 l-118 -58 -97 23 c-54 13 -111 27 -128 32
-25 8 -693 171 -749 184 -10 2 -41 -7 -70 -20 -136 -62 -166 -73 -172 -64 -3
5 -21 62 -40 127 -68 227 -107 357 -112 376 -5 19 20 46 42 46 6 0 63 -16 126
-36z m-230 -66 c7 -24 41 -139 76 -257 35 -118 64 -220 64 -228 0 -8 -7 -13
-17 -11 -11 2 -20 20 -28 53 -10 48 -12 50 -40 47 -17 -2 -33 -7 -37 -11 -4
-3 -1 -31 7 -61 8 -30 15 -58 15 -61 0 -4 -39 -24 -87 -44 -49 -21 -117 -51
-153 -67 -36 -17 -166 -74 -290 -128 -124 -54 -250 -109 -280 -123 -30 -14
-165 -73 -300 -132 -134 -58 -258 -112 -275 -120 -196 -88 -419 -184 -422
-181 -2 1 -9 34 -16 72 -12 67 -14 69 -41 67 -16 -1 -33 -6 -37 -10 -5 -5 -2
-40 6 -78 8 -39 15 -73 15 -78 0 -4 -20 -17 -45 -29 -50 -24 -82 -22 -310 22
-135 26 -244 46 -355 66 -98 18 -100 19 -100 45 0 15 -7 19 -35 19 -18 0 -38
-6 -42 -14 -5 -9 -19 -12 -40 -9 -59 9 -64 6 202 128 44 20 134 62 200 92 66
31 147 68 180 83 33 15 141 65 240 110 99 45 205 93 235 107 94 44 191 89 305
141 61 27 137 62 170 77 33 15 102 47 153 71 52 24 96 44 98 44 2 0 60 27 130
60 69 33 128 60 129 60 5 0 527 241 640 295 28 13 55 24 62 24 7 1 17 -18 23
-41z m486 -549 c26 -68 54 -144 64 -169 66 -170 100 -264 100 -275 0 -7 -53
-35 -117 -63 l-118 -51 -12 27 c-7 15 -21 59 -32 97 -11 39 -48 162 -81 273
-34 112 -59 209 -57 215 6 19 191 95 199 82 4 -6 28 -67 54 -136z m119 117
c55 -14 258 -64 450 -112 193 -47 356 -89 364 -94 7 -4 37 -63 66 -131 195
-462 194 -459 178 -459 -4 0 -32 7 -62 14 -31 8 -87 22 -126 30 -103 23 -241
54 -315 72 -36 9 -92 22 -125 29 -297 68 -336 79 -345 95 -5 9 -43 107 -84
216 -41 109 -79 210 -84 224 -6 14 -20 48 -31 77 -26 63 -26 76 -3 69 9 -3 62
-17 117 -30z m1179 21 c17 -12 16 -14 -8 -25 -22 -10 -27 -9 -36 8 -5 10 -10
21 -10 24 0 11 36 6 54 -7z m-1589 -244 c20 -71 59 -201 86 -290 27 -89 49
-171 49 -182 0 -12 -9 -22 -22 -26 -23 -7 -38 -14 -141 -59 -32 -14 -60 -26
-62 -26 -2 0 -28 -11 -57 -24 -29 -14 -152 -67 -273 -118 l-220 -94 0 125 c0
116 -2 130 -28 185 -54 116 -131 186 -240 216 l-62 18 60 27 c33 15 74 33 90
40 17 7 57 26 90 40 33 15 147 65 253 111 106 46 219 96 250 110 31 14 75 33
97 42 22 8 44 19 50 24 5 4 16 8 26 8 12 0 25 -31 54 -127z m1530 36 c5 -14 2
-25 -6 -30 -27 -17 -209 -92 -213 -88 -2 2 -6 13 -8 24 -2 16 15 27 102 67 58
26 108 47 112 48 4 0 10 -10 13 -21z m63 -181 c23 -68 100 -296 172 -508 72
-212 166 -488 209 -615 43 -126 99 -290 125 -364 25 -74 44 -136 42 -138 -3
-3 -106 14 -311 53 -99 18 -211 40 -312 58 -111 21 -262 50 -453 86 -91 18
-199 38 -240 45 l-75 14 -93 -42 c-56 -25 -96 -37 -101 -31 -5 5 -34 97 -66
204 -31 107 -63 214 -71 238 -8 24 -12 47 -9 51 2 5 26 16 52 26 26 10 62 23
78 31 40 17 83 35 245 100 74 30 144 59 155 64 23 10 92 39 257 105 133 54
141 58 237 99 70 29 74 33 76 66 3 30 -52 181 -125 345 -34 76 -51 126 -48
136 4 11 180 96 204 98 6 1 29 -54 52 -121z m-2420 -253 c49 -21 79 -51 108
-107 77 -151 26 -361 -101 -414 -105 -43 -216 17 -261 143 -16 45 -18 163 -4
215 17 60 70 129 119 155 52 27 88 29 139 8z m1464 -15 c73 -17 160 -37 193
-45 55 -13 128 -30 305 -71 36 -8 130 -30 210 -48 l145 -33 -59 -27 c-32 -14
-60 -26 -62 -26 -2 0 -59 -23 -127 -51 -67 -28 -160 -66 -207 -85 -47 -19 -94
-39 -105 -44 -11 -5 -81 -34 -155 -64 -74 -30 -180 -73 -235 -96 -158 -67
-135 -90 -231 230 -46 151 -82 279 -81 283 4 13 219 105 249 106 14 1 86 -13
160 -29z m-1884 -2 c-46 -73 -59 -100 -73 -153 -19 -75 -19 -155 0 -228 22
-84 48 -130 112 -193 52 -52 55 -57 37 -68 -51 -30 -970 -424 -976 -418 -3 4
-11 32 -17 62 -6 30 -20 98 -31 150 -11 52 -27 129 -36 170 -9 41 -20 95 -25
120 -4 25 -11 60 -15 78 -8 40 7 53 101 93 33 14 89 39 125 56 36 17 185 83
330 146 146 63 310 136 365 161 55 25 104 45 109 45 4 1 2 -9 -6 -21z m1413
-138 c3 -14 23 -81 44 -150 90 -306 107 -371 101 -377 -4 -4 -37 0 -74 9 -116
29 -474 115 -682 164 -168 39 -192 46 -183 55 4 4 58 29 118 54 61 25 119 50
130 55 25 11 101 43 140 60 17 6 107 45 200 86 94 40 176 73 184 71 8 -1 18
-13 22 -27z m-2766 -244 c77 -14 167 -31 201 -37 76 -13 82 -17 90 -58 6 -30
5 -32 -17 -27 -34 8 -234 43 -357 62 -93 15 -104 19 -113 41 -5 13 -9 31 -9
40 0 17 -15 19 205 -21z m2015 -109 c36 -9 103 -25 150 -36 47 -11 144 -34
215 -51 114 -27 279 -66 428 -102 26 -7 47 -15 47 -19 0 -4 -28 -18 -62 -32
-35 -13 -110 -44 -167 -67 -119 -48 -124 -48 -331 -6 -174 36 -309 64 -370 75
-143 28 -253 51 -257 54 -2 2 24 14 58 26 68 25 164 112 188 169 11 26 16 30
25 18 6 -8 40 -21 76 -29z m-1925 -13 c116 -21 212 -38 214 -40 9 -7 109 -492
113 -549 l3 -40 105 -12 c58 -6 158 -18 222 -27 144 -20 309 -41 465 -61 65
-8 163 -22 219 -30 l101 -16 99 39 99 40 22 -97 c13 -53 39 -162 58 -243 39
-164 40 -174 23 -181 -14 -6 -195 -79 -423 -171 -77 -32 -149 -61 -160 -66
-11 -5 -69 -30 -130 -54 -60 -24 -193 -78 -295 -119 -173 -70 -214 -87 -265
-108 -11 -4 -38 -15 -60 -24 -22 -9 -89 -37 -148 -61 -59 -24 -109 -44 -111
-44 -2 0 -9 24 -16 53 -6 28 -18 79 -26 112 -7 33 -30 134 -49 225 -20 91 -48
217 -62 280 -14 63 -31 142 -38 175 -8 33 -27 123 -44 200 -17 77 -33 149 -36
160 -3 11 -21 94 -40 185 -39 181 -80 363 -95 425 -5 22 -10 53 -10 68 0 26 3
28 28 23 15 -3 122 -22 237 -42z m1644 -220 c152 -31 305 -62 341 -69 239 -45
360 -71 360 -78 0 -4 -8 -10 -17 -14 -30 -10 -409 -166 -448 -183 -20 -9 -244
-100 -359 -146 -70 -28 -94 -29 -241 -9 -141 20 -299 41 -450 60 -66 9 -167
22 -225 30 -58 8 -131 17 -163 21 -32 3 -55 10 -50 15 4 4 44 23 88 42 80 34
131 57 235 103 78 35 644 282 649 283 2 1 128 -24 280 -55z m1217 -39 c6 -22
28 -96 49 -165 20 -69 43 -145 50 -170 7 -25 18 -60 24 -78 10 -33 10 -34 -37
-53 -26 -11 -56 -24 -67 -29 -11 -6 -69 -30 -130 -54 -60 -24 -195 -79 -300
-121 -104 -43 -239 -97 -300 -121 -60 -24 -119 -49 -130 -54 -76 -35 -171 -70
-181 -66 -6 2 -17 28 -24 58 -98 425 -99 428 -124 428 -13 1 -5 8 24 19 41 16
166 68 410 168 47 20 105 43 130 53 65 25 150 59 185 75 17 8 71 30 120 50 50
20 99 40 110 45 84 38 143 59 160 57 13 -1 23 -15 31 -42z m512 -389 c37 -8
117 -24 177 -35 342 -63 447 -83 510 -96 39 -8 122 -23 185 -35 63 -11 135
-25 160 -30 25 -5 81 -16 125 -24 119 -22 301 -56 380 -71 39 -7 113 -21 165
-30 209 -38 197 -32 224 -124 20 -65 20 -91 2 -91 -7 0 -175 27 -372 60 -198
34 -386 65 -419 70 -56 8 -360 58 -485 79 -177 31 -257 44 -455 77 -121 20
-225 41 -231 47 -10 10 -27 59 -68 195 -9 27 5 28 102 8z m-100 -120 c18 -55
30 -101 28 -104 -2 -2 -82 -35 -178 -74 -95 -38 -290 -117 -433 -175 -143 -58
-294 -119 -335 -135 -41 -15 -84 -33 -95 -38 -11 -5 -45 -19 -75 -30 -30 -12
-64 -26 -75 -31 -11 -5 -126 -51 -255 -103 -710 -284 -917 -367 -935 -376 -11
-5 -117 -48 -235 -95 -118 -47 -224 -90 -235 -95 -11 -5 -54 -23 -95 -39 -41
-15 -217 -86 -390 -156 -173 -70 -321 -128 -329 -129 -9 0 -19 16 -27 44 -7
25 -19 70 -27 100 -12 42 -13 58 -4 67 7 6 57 29 112 51 55 22 150 60 210 85
187 76 579 236 890 361 77 31 149 61 160 66 19 9 157 65 410 166 61 24 119 49
130 54 11 5 70 30 130 54 61 24 196 79 300 121 105 43 240 97 300 121 61 25
124 51 140 58 17 8 89 37 160 65 72 29 139 56 150 61 11 5 61 25 110 45 50 20
99 40 110 45 11 5 83 34 160 65 77 30 147 59 155 64 23 14 34 -5 68 -113z
m252 -156 c69 -12 163 -28 210 -35 47 -8 128 -21 180 -30 52 -9 124 -20 160
-25 36 -6 88 -15 115 -20 53 -11 380 -65 480 -80 77 -12 406 -66 510 -84 44
-8 116 -20 160 -27 44 -6 84 -15 88 -19 5 -4 -17 -18 -50 -30 -98 -36 -187
-71 -208 -81 -11 -5 -50 -20 -87 -34 -37 -14 -109 -41 -160 -61 -137 -53 -202
-78 -308 -118 -52 -20 -104 -41 -115 -46 -19 -9 -66 -27 -360 -139 -60 -23
-119 -46 -130 -51 -11 -6 -67 -28 -125 -49 -241 -91 -346 -132 -365 -141 -11
-5 -67 -28 -125 -49 -58 -22 -152 -59 -210 -81 -158 -62 -292 -114 -425 -165
-66 -25 -129 -50 -140 -55 -11 -5 -51 -21 -90 -36 -38 -14 -97 -36 -130 -49
-33 -13 -103 -40 -155 -60 -52 -20 -108 -42 -125 -49 -87 -38 -96 -39 -208
-32 -155 9 -537 32 -812 50 -126 9 -338 22 -470 31 -132 8 -305 19 -385 24
-80 6 -266 18 -413 27 -193 13 -263 20 -250 28 10 5 54 24 98 42 103 41 672
271 790 319 50 20 106 42 125 49 19 7 121 48 225 91 105 43 210 85 235 95 82
32 574 231 605 244 17 7 53 22 80 31 28 10 55 22 60 25 6 4 24 12 40 18 53 19
125 47 320 127 105 42 258 104 340 137 83 33 159 63 170 68 11 5 83 34 160 65
77 30 149 60 160 65 11 5 45 19 75 30 30 11 64 25 75 30 11 5 58 25 105 45 94
38 87 38 280 5z"></path>
<path d="M4397 4733 c-3 -5 -7 -21 -8 -37 l-4 -29 165 -40 c91 -21 255 -61
365 -88 110 -26 203 -45 207 -41 4 4 10 21 13 37 l6 30 -103 23 c-143 33 -501
119 -569 137 -64 17 -66 18 -72 8z"></path>
<path d="M4434 4566 c-3 -8 -4 -25 -2 -38 3 -24 11 -26 518 -134 253 -54 236
-53 242 -13 6 36 0 39 -119 64 -204 43 -261 55 -437 94 -103 22 -190 41 -192
41 -3 0 -7 -6 -10 -14z"></path>
<path d="M4497 4414 c-4 -4 -7 -22 -7 -40 0 -31 2 -32 58 -42 31 -6 98 -20
147 -31 277 -61 518 -111 534 -111 13 0 20 9 23 30 3 17 1 33 -3 36 -4 2 -124
29 -266 60 -390 84 -426 92 -453 99 -14 3 -29 3 -33 -1z"></path>
</g>
</svg>