 <svg version="1.0" xmlns="http://www.w3.org/2000/svg" width="700.000000pt" height="700.000000pt" viewBox="0 0 700.000000 700.000000" preserveAspectRatio="xMidYMid meet">
<metadata>
Created by potrace 1.12, written by Peter Selinger 2001-2015
</metadata>
<g transform="translate(0.000000,700.000000) scale(0.100000,-0.100000)" fill="#000000" stroke="none">
<path d="M715 6033 c-78 -10 -129 -25 -159 -48 -17 -13 -60 -31 -95 -39 -60
-14 -66 -18 -177 -131 -63 -65 -121 -130 -129 -145 -12 -24 -15 -193 -16
-1162 l-1 -1133 29 -60 c33 -69 55 -80 78 -36 8 17 24 35 36 41 11 6 601 592
1310 1301 1264 1264 1291 1292 1294 1332 2 32 -2 48 -18 65 l-20 22 -1051 -1
c-578 -1 -1064 -4 -1081 -6z"></path>
<path d="M3677 6030 c-33 -6 -81 -50 -360 -327 -177 -177 -337 -334 -355 -349
-18 -16 -63 -60 -100 -98 -37 -38 -78 -78 -90 -90 -13 -11 -54 -52 -90 -89
-37 -38 -76 -76 -86 -85 -10 -9 -28 -28 -40 -41 -12 -13 -29 -31 -40 -40 -20
-17 -389 -386 -423 -423 -11 -13 -51 -53 -89 -89 -38 -36 -79 -77 -91 -90 -19
-21 -59 -61 -92 -93 -35 -33 -409 -408 -427 -428 -12 -13 -52 -53 -90 -90 -38
-36 -79 -77 -90 -90 -27 -29 -61 -63 -97 -97 -21 -20 -234 -233 -605 -603 -6
-7 -66 -67 -132 -132 -66 -65 -120 -122 -120 -127 0 -4 -16 -17 -36 -30 -25
-15 -45 -40 -64 -81 l-28 -59 4 -216 4 -216 36 -54 35 -53 439 437 c241 241
499 497 575 568 75 72 144 138 153 149 13 14 346 347 694 694 4 4 161 160 348
347 186 187 345 346 352 353 145 144 1307 1306 1318 1318 8 8 34 35 57 58 34
33 44 51 49 88 5 38 3 49 -15 67 -20 20 -29 21 -243 20 -123 -1 -240 -5 -261
-9z"></path>
<path d="M5507 6033 c-34 -4 -111 -77 -996 -961 -527 -526 -969 -966 -982
-978 -13 -11 -31 -28 -39 -37 -8 -9 -31 -32 -50 -52 -19 -19 -41 -40 -48 -47
-7 -7 -28 -29 -48 -48 -19 -19 -38 -38 -42 -42 -9 -10 -154 -154 -167 -167 -5
-6 -27 -27 -48 -48 -21 -21 -41 -41 -45 -45 -4 -4 -24 -24 -45 -45 -20 -21
-45 -45 -54 -53 -9 -8 -26 -26 -37 -39 -12 -12 -30 -30 -40 -40 -11 -9 -33
-29 -48 -46 -15 -16 -31 -33 -35 -37 -5 -4 -24 -23 -43 -42 -19 -20 -39 -40
-45 -45 -5 -6 -27 -27 -48 -48 -21 -21 -41 -41 -45 -45 -9 -10 -159 -160 -173
-173 -5 -5 -24 -24 -42 -42 -18 -18 -38 -38 -45 -45 -7 -7 -28 -29 -47 -48
-20 -19 -43 -42 -52 -50 -9 -8 -26 -26 -37 -39 -12 -12 -30 -30 -40 -40 -11
-9 -33 -29 -48 -46 -15 -16 -32 -34 -37 -39 -5 -4 -25 -24 -44 -43 -19 -19
-39 -40 -45 -45 -5 -6 -26 -26 -45 -45 -19 -19 -39 -40 -45 -45 -13 -13 -157
-157 -170 -170 -5 -6 -26 -26 -45 -45 -19 -19 -39 -40 -45 -45 -5 -6 -26 -27
-46 -47 -20 -20 -44 -43 -53 -51 -9 -8 -26 -26 -37 -39 -12 -12 -30 -30 -40
-40 -11 -9 -33 -29 -48 -46 -15 -16 -32 -34 -37 -39 -5 -4 -25 -24 -44 -43
-19 -19 -39 -40 -45 -45 -5 -6 -26 -26 -45 -45 -19 -19 -39 -40 -45 -45 -13
-13 -157 -157 -170 -170 -12 -12 -75 -75 -91 -92 -6 -6 -45 -44 -86 -85 -41
-40 -75 -76 -75 -80 0 -4 -13 -15 -30 -24 -16 -10 -37 -30 -46 -46 -9 -16 -29
-36 -45 -45 -16 -9 -36 -29 -45 -45 -9 -16 -30 -36 -46 -46 -17 -9 -37 -34
-45 -54 -8 -20 -26 -46 -40 -57 l-25 -21 57 -41 58 -42 2966 0 2966 0 40 21
c40 21 81 58 201 179 45 47 65 75 70 100 10 61 14 69 52 105 l37 34 0 2109 0
2109 -37 60 c-21 34 -38 66 -38 73 0 13 -48 65 -174 186 -37 35 -52 42 -99 48
-35 5 -68 16 -89 32 -82 60 -67 58 -513 60 -225 1 -427 0 -448 -3z"></path>
</g>
</svg>