 <svg version="1.0" xmlns="http://www.w3.org/2000/svg" width="700.000000pt" height="700.000000pt" viewBox="0 0 700.000000 700.000000" preserveAspectRatio="xMidYMid meet">
<metadata>
Created by potrace 1.12, written by Peter Selinger 2001-2015
</metadata>
<g transform="translate(0.000000,700.000000) scale(0.100000,-0.100000)" fill="#000000" stroke="none">
<path d="M32 5793 l3 -208 165 -5 165 -5 0 -2165 0 -2165 -67 -3 -68 -3 0 -94
0 -95 3290 0 3290 0 0 95 0 94 -77 3 -78 3 0 2165 0 2165 163 3 162 2 0 210 0
210 -3475 0 -3475 0 2 -207z m6913 2 l0 -170 -3435 0 -3435 0 -3 160 c-1 87 0
165 2 172 4 11 640 13 3438 11 l3433 -3 0 -170z m-477 -2533 l2 -1862 -2962 2
-2963 3 -3 1850 c-1 1018 0 1856 3 1863 3 10 601 12 2962 10 l2958 -3 3 -1863z
m300 -2115 l3 -57 -3253 2 -3253 3 -3 44 c-2 24 -1 50 2 57 5 12 491 14 3253
12 l3248 -3 3 -58z"></path>
<path d="M4503 3610 c-95 -19 -180 -82 -231 -173 -19 -32 -22 -54 -22 -141 0
-56 3 -106 6 -109 4 -4 29 12 55 34 45 38 49 44 49 85 0 47 25 108 57 136 29
27 105 58 142 58 84 0 165 -52 205 -130 18 -36 22 -125 6 -135 -5 -3 -10 -14
-10 -24 0 -24 -77 -97 -124 -116 -21 -9 -58 -15 -81 -14 -36 2 -49 -2 -84 -33
-22 -19 -41 -40 -41 -46 0 -32 198 -42 260 -14 112 52 168 116 195 226 17 70
17 75 0 146 -34 140 -121 223 -260 249 -65 12 -63 12 -122 1z"></path>
<path d="M981 3561 c-19 -26 -21 -44 -21 -165 0 -75 3 -136 8 -136 9 0 322
313 322 323 0 4 -65 7 -144 7 l-145 0 -20 -29z"></path>
<path d="M1182 3367 c-164 -164 -222 -228 -222 -245 0 -13 4 -22 9 -20 13 5
491 473 491 481 0 4 -12 7 -27 6 -23 0 -72 -44 -251 -222z"></path>
<path d="M1522 3468 c-303 -292 -512 -497 -512 -502 0 -3 172 -6 383 -6 l384
0 21 23 c21 23 22 30 22 293 0 270 0 271 -23 292 -19 18 -35 22 -86 22 l-62 0
-127 -122z"></path>
<path d="M2380 3566 c0 -14 4 -27 9 -30 4 -3 11 -24 15 -47 4 -23 15 -70 25
-103 11 -34 26 -88 35 -121 9 -33 25 -87 35 -120 17 -53 24 -77 46 -162 6 -21
12 -23 75 -23 81 0 77 -4 110 125 12 50 26 94 31 99 5 6 9 20 9 32 0 22 16 82
50 184 10 30 21 74 25 97 4 24 11 45 16 49 5 3 9 14 9 25 0 16 -7 19 -55 19
-44 0 -57 -4 -61 -17 -3 -10 -10 -27 -14 -38 -5 -11 -10 -29 -13 -40 -37 -160
-98 -359 -107 -348 -11 13 -83 258 -97 333 -2 14 -8 34 -13 45 -5 11 -10 29
-12 40 -3 17 -12 20 -61 23 -55 3 -57 2 -57 -22z"></path>
<path d="M3047 3584 c-4 -4 -7 -146 -7 -316 l0 -308 60 0 60 0 -2 313 -3 312
-50 3 c-28 2 -54 0 -58 -4z"></path>
<path d="M3515 3578 c-135 -46 -188 -144 -135 -248 24 -47 57 -71 130 -95 124
-40 147 -51 165 -79 61 -93 -110 -130 -256 -55 -20 11 -40 19 -43 19 -7 0 -46
-61 -46 -72 0 -14 74 -54 125 -68 71 -20 201 -19 245 2 87 41 122 127 86 211
-22 53 -57 76 -189 124 -96 34 -130 70 -106 111 8 14 32 32 56 40 35 13 48 14
80 3 21 -7 60 -13 88 -14 45 -2 50 0 64 27 13 29 13 31 -20 58 -21 18 -45 28
-66 28 -17 0 -35 5 -38 10 -8 13 -100 11 -140 -2z"></path>
<path d="M3965 3578 c-3 -8 -4 -110 -3 -228 l3 -215 58 -3 57 -3 -2 228 -3
228 -53 3 c-36 2 -54 -1 -57 -10z"></path>
<path d="M5025 3577 c-3 -7 -4 -147 -3 -312 l3 -300 48 -3 c77 -5 77 -4 77
195 0 155 2 174 15 163 8 -7 15 -16 15 -21 0 -5 47 -79 105 -165 58 -86 105
-160 105 -165 0 -6 26 -9 58 -7 l57 3 0 310 0 310 -60 0 -60 0 -1 -145 c-3
-209 -3 -220 -12 -220 -8 0 -64 86 -182 283 l-53 87 -54 0 c-34 0 -55 -5 -58
-13z"></path>
<path d="M5855 3580 c-3 -5 -17 -10 -30 -10 -35 0 -91 -37 -115 -74 -27 -45
-27 -123 1 -177 17 -33 32 -46 84 -70 36 -16 73 -29 83 -29 31 0 99 -38 120
-68 19 -26 19 -29 4 -49 -25 -30 -55 -43 -104 -43 -48 0 -130 23 -165 45 -31
21 -35 19 -61 -21 -28 -43 -22 -53 49 -84 108 -46 258 -49 321 -6 41 27 87 94
88 125 0 46 -40 117 -83 144 -23 15 -47 27 -54 27 -8 0 -33 9 -55 20 -23 11
-46 20 -51 20 -6 0 -25 12 -44 26 -28 21 -34 32 -31 56 2 17 10 34 18 38 8 4
25 12 37 18 27 14 67 15 91 3 9 -5 37 -13 62 -19 40 -10 47 -8 68 10 33 32 28
62 -14 87 -19 12 -46 21 -59 21 -13 0 -27 5 -30 10 -3 6 -33 10 -65 10 -32 0
-62 -4 -65 -10z"></path>
<path d="M2082 3468 c-7 -7 -12 -27 -12 -45 l0 -34 68 3 c65 3 67 4 70 31 2
16 -2 35 -9 43 -14 17 -100 19 -117 2z"></path>
<path d="M2072 3133 l3 -168 56 -3 c39 -2 59 1 68 11 8 10 11 61 9 168 l-3
154 -68 3 -67 3 2 -168z"></path>
<path d="M4331 3146 c-33 -34 -37 -66 -8 -66 22 0 80 67 74 84 -10 25 -30 19
-66 -18z"></path>
<path d="M3964 3046 c-3 -8 -4 -27 -2 -43 3 -27 5 -28 58 -28 l55 0 0 40 0 40
-53 3 c-39 2 -54 -1 -58 -12z"></path>
</g>
</svg>